HIERARCHY
ROOT Hips
{
	OFFSET 0.000000 0.000000 0.000000 
	CHANNELS 6 Xposition Yposition Zposition Yrotation Zrotation Xrotation 
	JOINT Lumbar
	{
		OFFSET 0.000000 0.000000 0.000000 
		CHANNELS 3 Zrotation Xrotation Yrotation
		JOINT Neck
		{
			OFFSET 0.000000 0.445665 0.000000 
			CHANNELS 3 Zrotation Xrotation Yrotation
			End Site
			{
				OFFSET 0.000000 0.227535 0.000000 
			}
		}
		JOINT RightShoulder
		{
			OFFSET 0.019635 0.377685 0.194865 
			CHANNELS 3 Zrotation Xrotation Yrotation
			JOINT RightElbow
			{
				OFFSET 0.000000 -0.243375 0.000000 
				CHANNELS 2 Zrotation Yrotation
				JOINT RightWrist
				{
					OFFSET 0.000000 -0.264825 0.000000 
					CHANNELS 2 Zrotation Xrotation
					End Site
					{
						OFFSET 0.006600 -0.176220 0.000990 
					}
				}
			}
		}
		JOINT LeftShoulder
		{
			OFFSET 0.019635 0.377685 -0.194865 
			CHANNELS 3 Zrotation Xrotation Yrotation
			JOINT LeftElbow
			{
				OFFSET 0.000000 -0.243375 0.000000 
				CHANNELS 2 Zrotation Yrotation
				JOINT LeftWrist
				{
					OFFSET 0.000000 -0.264825 0.000000 
					CHANNELS 2 Zrotation Xrotation
					End Site
					{
						OFFSET 0.006600 -0.176220 -0.000990 
					}
				}
			}
		}
	}
	JOINT RightHip
	{
		OFFSET 0.052140 -0.069960 0.075570 
		CHANNELS 3 Zrotation Xrotation Yrotation
		JOINT RightKnee
		{
			OFFSET 0.000000 -0.402270 0.000000 
			CHANNELS 1 Zrotation
			JOINT RightAnkle
			{
				OFFSET 0.000000 -0.404085 0.000000 
				CHANNELS 3 Zrotation Xrotation Yrotation
				End Site
				{
					OFFSET 0.204105 -0.089430 0.008415 
				}
			}
		}
	}
	JOINT LeftHip
	{
		OFFSET 0.052140 -0.069960 -0.075570 
		CHANNELS 3 Zrotation Xrotation Yrotation
		JOINT LeftKnee
		{
			OFFSET 0.000000 -0.402270 0.000000 
			CHANNELS 1 Zrotation
			JOINT LeftAnkle
			{
				OFFSET 0.000000 -0.404085 0.000000 
				CHANNELS 3 Zrotation Xrotation Yrotation
				End Site
				{
					OFFSET 0.204105 -0.089430 -0.008415 
				}
			}
		}
	}
}
MOTION
Frames: 13
Frame Time: 0.02
-0.47538 -0.4789 0.29579 29.49551 21.01551 -7.35979 23.45417 2.9332 -4.99673 -12.24166 -5.15638 -0.83004 43.83927 1.73261 64.17116 102.40381 92.22755 71.33749 -3.4236 11.74998 -5.06707 -64.1241 95.94649 -122.60004 53.06811 -0.08613 71.56295 -7.74025 -8.8944 -73.84969 -14.32013 -4.33593 -3.34517 72.18235 11.39752 4.22508 -71.76588 -15.82705 3.95283 3.20017
-0.47574 -0.47901 0.29574 29.43786 21.31854 -7.23639 23.19634 2.91033 -5.43577 -12.08618 -5.31872 -0.83004 39.91257 3.42835 64.17118 99.54808 84.7549 70.84282 -3.90054 14.22442 -3.39302 -64.13252 100.08715 -104.78351 58.69099 3.94537 71.24321 -7.92526 -9.0737 -73.791 -14.37892 -4.32377 -3.34132 71.87563 11.33084 4.18924 -71.71097 -15.83073 3.96589 3.20916
-0.47611 -0.47911 0.29567 29.36583 21.67931 -7.07724 22.85992 2.88447 -5.98735 -11.88912 -5.51149 -0.83005 34.98922 5.55723 64.1712 95.96448 75.41308 70.20719 -4.49394 17.3649 -1.26867 -64.14273 105.30056 -82.43024 65.80647 8.99088 70.85675 -8.16694 -9.30633 -73.72034 -14.45022 -4.30819 -3.33607 71.50345 11.25416 4.15367 -71.64054 -15.83926 3.98163 3.22013
-0.47647 -0.47922 0.29562 29.30504 21.99885 -6.94451 22.57425 2.86163 -6.45693 -11.71026 -5.68184 -0.83005 30.78967 7.37333 64.17122 92.90988 67.43215 69.6567 -5.00004 20.08956 0.56831 -64.15186 109.7516 -63.29939 71.91413 13.30163 70.51879 -8.37682 -9.50981 -73.6595 -14.5139 -4.29383 -3.33112 71.17726 11.18727 4.12033 -71.57975 -15.84564 3.99528 3.22963
-0.47684 -0.47929 0.29554 29.22507 22.3808 -6.76977 22.22591 2.83194 -7.05425 -11.53426 -5.88681 -0.83005 25.46736 9.67068 64.17125 89.03316 57.32861 69.01501 -5.6499 23.3131 2.76212 -64.16224 115.34829 -39.318 79.41739 18.74965 70.10532 -8.6127 -9.73431 -73.58067 -14.58583 -4.28077 -3.32751 70.78356 11.09798 4.07681 -71.50836 -15.85184 4.01261 3.24156
-0.47719 -0.47944 0.2955 29.18095 22.64789 -6.67289 21.98789 2.8158 -7.41565 -11.34201 -6.02912 -0.83006 22.21891 11.0804 64.17127 86.67546 51.15052 68.53038 -6.03121 25.65392 4.32174 -64.17039 118.83941 -24.25954 84.3885 22.09741 69.83154 -8.8072 -9.92674 -73.53595 -14.64369 -4.26431 -3.32088 70.51333 11.05296 4.05476 -71.45511 -15.8595 4.02298 3.24892
-0.47743 -0.4798 0.29561 29.24444 22.57027 -6.80986 22.0891 2.83738 -7.06752 -11.12031 -5.97207 -0.83006 25.19144 9.82373 64.17127 88.87593 56.74125 68.51753 -5.60846 25.31299 3.95685 -64.17183 116.0005 -35.99795 81.72592 19.14249 69.97566 -8.87999 -10.02815 -73.59245 -14.65734 -4.23836 -3.30549 70.61491 11.13394 4.09004 -71.45725 -15.87062 4.01272 3.24276
-0.47764 -0.48023 0.29576 29.34352 22.37745 -7.02459 22.3013 2.87284 -6.48363 -10.88273 -5.85489 -0.83006 30.2402 7.67851 64.17127 92.59671 66.26217 68.66744 -4.9173 24.07053 2.94751 -64.17096 111.05039 -56.68925 76.50868 14.08427 70.25981 -8.90809 -10.09373 -73.68291 -14.65677 -4.20927 -3.28725 70.84035 11.25947 4.14701 -71.47785 -15.88296 3.99551 3.23203
-0.47786 -0.48062 0.29588 29.42291 22.24621 -7.19703 22.45267 2.90206 -6.02782 -10.64912 -5.77701 -0.83006 34.17293 6.0121 64.17127 95.49909 73.67222 68.7406 -4.37136 23.29165 2.27336 -64.1712 107.23335 -72.59444 72.64086 10.15781 70.46941 -8.95233 -10.16863 -73.75515 -14.66415 -4.18223 -3.27082 70.99928 11.36399 4.19563 -71.48899 -15.89432 3.98198 3.22368
-0.47809 -0.48104 0.29602 29.51663 22.07833 -7.39733 22.64505 2.93048 -5.48805 -10.42799 -5.64772 -0.83007 38.79406 4.04602 64.17127 98.91097 82.37843 68.81986 -3.73232 22.31432 1.43875 -64.17123 102.72604 -91.34703 68.03922 5.53105 70.72246 -9.01579 -10.27408 -73.83881 -14.66568 -4.15248 -3.25222 71.19874 11.47201 4.23897 -71.50416 -15.90756 3.96635 3.21408
-0.4783 -0.48141 0.29614 29.58917 21.95828 -7.55884 22.7795 2.96443 -5.06509 -10.17734 -5.61325 -0.83007 42.49361 2.48515 64.17127 101.63628 89.35468 68.92778 -3.22079 21.52089 0.77661 -64.17112 99.13464 -106.3822 64.32833 1.84155 70.91948 -9.02831 -10.30757 -73.90684 -14.67585 -4.12762 -3.23742 71.34447 11.58267 4.29708 -71.51548 -15.91722 3.95342 3.20599
-0.47847 -0.4816 0.29624 29.59426 22.00149 -7.59192 22.7265 3.00567 -5.02688 -9.85162 -5.8346 -0.83007 43.09137 2.27822 64.17125 102.0617 90.49738 69.06843 -3.13646 21.51037 0.77046 -64.17118 98.63966 -108.74354 63.79496 1.326 70.92485 -8.90704 -10.14353 -73.92404 -14.71343 -4.11754 -3.23418 71.3081 11.69659 4.40251 -71.51219 -15.91558 3.94959 3.20305
-0.47862 -0.48172 0.29634 29.57692 22.09596 -7.58388 22.61185 3.05288 -5.11293 -9.49649 -6.15718 -0.83008 42.70388 2.50433 64.17123 101.75323 89.79018 69.23416 -3.18753 21.70426 0.95438 -64.17116 99.1249 -107.11708 64.22333 1.80917 70.8698 -8.7366 -9.9096 -73.9243 -14.76008 -4.11242 -3.2348 71.21435 11.81046 4.51991 -71.50441 -15.91049 3.94871 3.20182
